<svg width="44" height="46" viewBox="0 0 44 46" fill="none" xmlns="http://www.w3.org/2000/svg">
<path d="M16.9583 42.1666L16.225 36.0333C15.8277 35.8736 15.4534 35.6819 15.102 35.4583C14.7506 35.2347 14.4069 34.9951 14.0708 34.7396L8.61662 37.1354L3.57495 28.0312L8.29578 24.2937C8.26523 24.0701 8.24995 23.8545 8.24995 23.6469V22.3531C8.24995 22.1455 8.26523 21.9298 8.29578 21.7062L3.57495 17.9687L8.61662 8.86456L14.0708 11.2604C14.4069 11.0048 14.7583 10.7653 15.125 10.5416C15.4916 10.318 15.8583 10.1264 16.225 9.96665L16.9583 3.83331H27.0416L27.775 9.96665C28.1722 10.1264 28.5465 10.318 28.8979 10.5416C29.2493 10.7653 29.593 11.0048 29.9291 11.2604L35.3833 8.86456L40.4249 17.9687L35.7041 21.7062C35.7347 21.9298 35.75 22.1455 35.75 22.3531V23.6469C35.75 23.8545 35.7194 24.0701 35.6583 24.2937L40.3791 28.0312L35.3375 37.1354L29.9291 34.7396C29.593 34.9951 29.2416 35.2347 28.875 35.4583C28.5083 35.6819 28.1416 35.8736 27.775 36.0333L27.0416 42.1666H16.9583ZM20.1666 38.3333H23.7875L24.4291 33.2541C25.3763 32.9986 26.2548 32.6232 27.0645 32.1281C27.8743 31.633 28.6152 31.034 29.2875 30.3312L33.8249 32.2958L35.6124 29.0375L31.6708 25.9229C31.8236 25.4757 31.9305 25.0045 31.9916 24.5094C32.0527 24.0142 32.0833 23.5111 32.0833 23C32.0833 22.4889 32.0527 21.9857 31.9916 21.4906C31.9305 20.9955 31.8236 20.5243 31.6708 20.0771L35.6124 16.9625L33.8249 13.7041L29.2875 15.7166C28.6152 14.9819 27.8743 14.367 27.0645 13.8719C26.2548 13.3767 25.3763 13.0014 24.4291 12.7458L23.8333 7.66665H20.2125L19.5708 12.7458C18.6236 13.0014 17.7451 13.3767 16.9354 13.8719C16.1256 14.367 15.3847 14.966 14.7125 15.6687L10.175 13.7041L8.38745 16.9625L12.3291 20.0291C12.1763 20.5083 12.0694 20.9875 12.0083 21.4666C11.9472 21.9458 11.9166 22.4569 11.9166 23C11.9166 23.5111 11.9472 24.0062 12.0083 24.4854C12.0694 24.9646 12.1763 25.4437 12.3291 25.9229L8.38745 29.0375L10.175 32.2958L14.7125 30.2833C15.3847 31.018 16.1256 31.633 16.9354 32.1281C17.7451 32.6232 18.6236 32.9986 19.5708 33.2541L20.1666 38.3333ZM22.0916 29.7083C23.8638 29.7083 25.3763 29.0535 26.6291 27.7437C27.8819 26.434 28.5083 24.8528 28.5083 23C28.5083 21.1472 27.8819 19.566 26.6291 18.2562C25.3763 16.9465 23.8638 16.2916 22.0916 16.2916C20.2888 16.2916 18.7687 16.9465 17.5312 18.2562C16.2937 19.566 15.675 21.1472 15.675 23C15.675 24.8528 16.2937 26.434 17.5312 27.7437C18.7687 29.0535 20.2888 29.7083 22.0916 29.7083Z" fill="#1D1B20"/>
</svg>
